# xmcd
#
# Track frame offsets: 
#        150
#        15703
#        28754
#        42305
#        54963
#        67990
#        83050
#        95130
#        106078
#        118535
#        131639
#        144542
#
# Disc length: 2100 seconds
#
# Revision: 3
# Processed by: cddbd v1.5.2PL0 Copyright (c) Steve Scherf et al.
# Submitted via: ExactAudioCopy v1.3
#
DISCID=9c08320c
DTITLE=Bessie Smith - The Rough Guide to Blues Legends: Bessie Smith (
DTITLE=Disc 2)
DYEAR=2011
DGENRE=Blues
TTITLE0=Lucille Bogan - Coffee Grindin' Blues
TTITLE1=Lil Johnson - My Stove's In Good Condition
TTITLE2=Lil Green - Knockin’ Myself Out
TTITLE3=Memphis Minnie - Dirty Mother For You
TTITLE4=Dinah Washington - Short John
TTITLE5=Victoria Spivey - Dope Head Blues
TTITLE6=Merline Johnson - Love Shows Weakness
TTITLE7=Ella Fitzgerald - When I Get Low I Get High
TTITLE8=Trixie Smith - Jack I'm Mellow
TTITLE9=Sippie Wallace - I'm A Mighty Tight Woman
TTITLE10=Big Maybelle - One Monkey Don't Stop No Show
TTITLE11=Ruth Brown - Oh What A Dream
EXTD=YEAR: 2011
EXTT0=
EXTT1=
EXTT2=
EXTT3=
EXTT4=
EXTT5=
EXTT6=
EXTT7=
EXTT8=
EXTT9=
EXTT10=
EXTT11=
PLAYORDER=
